<?xml version="1.0" encoding="utf-8"?>
<!-- Generator: Adobe Illustrator 16.1.0, SVG Export Plug-In . SVG Version: 6.00 Build 0)  -->
<!DOCTYPE svg PUBLIC "-//W3C//DTD SVG 1.1//EN" "http://www.w3.org/Graphics/SVG/1.1/DTD/svg11.dtd">
<svg version="1.1" id="Layer_1" xmlns="http://www.w3.org/2000/svg" xmlns:xlink="http://www.w3.org/1999/xlink" x="0px" y="0px"
	 width="30px" height="30px" viewBox="0 0 30 30" enable-background="new 0 0 30 30" xml:space="preserve">
<g display="none">
	<path display="inline" fill="#616264" d="M28.467,14.847c0-7.312-5.928-13.238-13.238-13.238C7.917,1.609,1.99,7.535,1.99,14.847
		c0,6.818,5.156,12.43,11.78,13.156V17.911h-2.255v-3.797h2.255c0,0,0-2.539,0-3.107c0-0.569-0.114-4.371,4.75-4.371
		c0.653,0,2.134,0,3.436,0c0,1.652,0,3.437,0,3.955c-0.976,0-2.027,0-2.526,0s-1.005,0.522-1.005,0.911c0,0.387,0,2.597,0,2.597
		s3.12,0,3.524,0c-0.14,1.991-0.431,3.812-0.431,3.812h-3.11v9.787C24.183,26.273,28.467,21.062,28.467,14.847z"/>
</g>
<g>
	<circle fill="#616264" cx="19.868" cy="12.116" r="1.175"/>
	<path fill="#616264" d="M15,0.941C7.236,0.941,0.941,7.235,0.941,15c0,7.764,6.294,14.059,14.059,14.059
		c7.764,0,14.059-6.295,14.059-14.059C29.059,7.235,22.764,0.941,15,0.941z M22.636,14.998c-0.27,0.499-0.643,0.934-1.084,1.283
		c-0.673,1.657-2.647,4.845-7.895,4.845c-7.088,0-9.401-5.223-9.401-5.223s3.224,1.589,6.642,0.336
		c-2.817-1.192-3.452-4.846-2.016-3.47c1.132,1.085,3.692,1.156,5.425,1.062c0.186-0.214,0.369-0.446,0.549-0.69
		c0-0.037-0.005-0.072-0.005-0.11c0-2.287,1.854-4.141,4.141-4.141c2.19,0,3.979,1.703,4.128,3.856l2.625,1.261L22.636,14.998z"/>
</g>
</svg>
