<?xml version="1.0" encoding="utf-8"?>
<!-- Generator: Adobe Illustrator 16.1.0, SVG Export Plug-In . SVG Version: 6.00 Build 0)  -->
<!DOCTYPE svg PUBLIC "-//W3C//DTD SVG 1.1//EN" "http://www.w3.org/Graphics/SVG/1.1/DTD/svg11.dtd">
<svg version="1.1" id="Layer_1" xmlns="http://www.w3.org/2000/svg" xmlns:xlink="http://www.w3.org/1999/xlink" x="0px" y="0px"
	 width="30px" height="30px" viewBox="0 0 30 30" enable-background="new 0 0 30 30" xml:space="preserve">
<g>
	<path fill="#616264" d="M28.467,14.847c0-7.312-5.928-13.238-13.238-13.238C7.917,1.609,1.99,7.535,1.99,14.847
		c0,6.818,5.156,12.43,11.78,13.156V17.911h-2.255v-3.797h2.255c0,0,0-2.539,0-3.107c0-0.569-0.114-4.371,4.75-4.371
		c0.653,0,2.134,0,3.436,0c0,1.652,0,3.437,0,3.955c-0.976,0-2.027,0-2.526,0s-1.005,0.522-1.005,0.911c0,0.387,0,2.597,0,2.597
		s3.12,0,3.524,0c-0.14,1.991-0.431,3.812-0.431,3.812h-3.11v9.787C24.183,26.273,28.467,21.062,28.467,14.847z"/>
</g>
</svg>
